<svg width="339" height="110" viewBox="0 0 339 110" fill="none" xmlns="http://www.w3.org/2000/svg">
<path fill-rule="evenodd" clip-rule="evenodd" d="M66.3575 33.6188H51.3824L32.3544 89.9938H47.3295L66.3575 33.6188Z" fill="#E73E44"/>
<path fill-rule="evenodd" clip-rule="evenodd" d="M41.7654 17.3251H26.7903L7.76233 73.6313H22.7374L41.7654 17.3251Z" fill="white"/>
<path fill-rule="evenodd" clip-rule="evenodd" d="M41.2845 18.15H27.4772L8.86143 73.3563H22.6687L41.2845 18.15ZM54.3362 25.6438H39.9794L42.5897 17.8063L42.8645 17.05H42.1088H27.1338H26.7216L26.5842 17.4625L7.55627 73.8376L7.28149 74.5938H8.03712H22.8061L20.2645 82.0188H35.2395L54.3362 25.6438Z" fill="#037BBF"/>
<path fill-rule="evenodd" clip-rule="evenodd" d="M5.97629 44.7563H74.9441L68.9678 62.7001H0L5.97629 44.7563Z" fill="white"/>
<path fill-rule="evenodd" clip-rule="evenodd" d="M40.4602 45.8563H56.4657L51.1763 61.6688H35.1708L40.4602 45.8563Z" fill="#037BBF"/>
<path fill-rule="evenodd" clip-rule="evenodd" d="M23.493 45.8563H39.5672L34.2778 61.6688H18.2037L23.493 45.8563Z" fill="#037BBF"/>
<path fill-rule="evenodd" clip-rule="evenodd" d="M6.73193 45.8563H22.8061L17.5167 61.6688H1.44257L6.73193 45.8563Z" fill="#037BBF"/>
<path fill-rule="evenodd" clip-rule="evenodd" d="M37.4377 47.2314L36.6134 49.5001C30.5684 49.2939 27.3398 49.7751 26.2407 53.6251C25.0043 57.6814 28.7824 58.0251 33.9343 57.9564L33.0413 60.3626C24.6608 60.5689 20.0584 59.9501 22.1878 53.5564C24.5234 46.5439 29.1258 47.2314 37.4377 47.2314Z" fill="white"/>
<path fill-rule="evenodd" clip-rule="evenodd" d="M57.4273 45.8563H73.5015L68.2121 61.6688H52.2067L57.4273 45.8563Z" fill="#037BBF"/>
<path fill-rule="evenodd" clip-rule="evenodd" d="M41.4906 47.2313L36.8195 60.3626H41.2845L44.9252 49.5688H49.3903L45.6809 60.3626H50.1459L54.611 47.2313H41.4906Z" fill="white"/>
<path fill-rule="evenodd" clip-rule="evenodd" d="M58.4577 47.2313L53.8553 60.3626H58.2516L61.8924 49.5001H66.3574L62.648 60.3626H67.113L71.5781 47.2313H58.4577Z" fill="white"/>
<path fill-rule="evenodd" clip-rule="evenodd" d="M7.96837 47.2313L3.43463 60.3626H7.76229L9.20484 56.2376C15.7307 56.2376 18.5471 56.1001 19.1653 51.7688C19.6462 48.4001 17.8602 47.1626 12.296 47.2313H7.96837ZM10.0292 53.6251L11.4717 49.3626C13.6699 49.2938 14.8377 49.7063 14.9751 51.1501C14.9751 53.3501 13.189 53.7626 10.0292 53.6251Z" fill="white"/>
<path d="M104.482 0H103.452V110H104.482V0Z" fill="white"/>
<path d="M279.031 32.7938V28.1875H281.092C281.779 28.1875 282.26 28.3938 282.672 28.7375C283.084 29.15 283.221 29.7 283.221 30.3875C283.221 31.1438 283.015 31.7625 282.534 32.175C282.053 32.5875 281.298 32.7938 280.267 32.7938C280.13 32.7938 279.787 32.7938 279.237 32.725L279.031 32.7938ZM284.389 34.1C285.419 33.2063 285.969 32.0375 285.969 30.525C285.969 29.6313 285.763 28.8063 285.419 28.05C285.076 27.2938 284.526 26.7438 283.84 26.3313C283.153 25.9188 282.328 25.7125 281.435 25.7125H276.421V40.2875H279.1V35.4063H280.061C281.916 35.3375 283.427 34.925 284.389 34.1Z" fill="white"/>
<path d="M240.013 33.825H245.509V31.35H240.013V28.1875H247.295V25.7125H240.013H237.609H237.334V40.2188H237.609H240.013H247.776V37.7438H240.013V33.825Z" fill="white"/>
<path d="M240.494 57.8188H246.058V55.3438H240.494V52.1813H247.776V49.6376H240.494H238.159H237.815V64.2126H238.159H240.494H248.257V61.7376H240.494V57.8188Z" fill="white"/>
<path d="M252.309 33.825H258.354V40.2188H261.033V25.7125H258.354V31.35H252.309V25.7125H249.63V40.2188H252.309V33.825Z" fill="white"/>
<path d="M267.491 40.2188H270.17V28.1875H274.772V25.7125H270.17H267.491H262.957V28.1875H267.491V40.2188Z" fill="white"/>
<path d="M233.144 25.7125H230.465V37.7438H224.214V25.7125H221.535V40.2188H224.214H230.465H232.388V42.1438H235.067V40.2188V38.4313V37.7438H233.144V25.7125Z" fill="white"/>
<path d="M307.676 49.6376H304.928V61.7376H298.677V49.6376H295.998V64.2126H298.677H304.928H306.852V66.1376H309.531V64.2126V62.4251V61.7376H307.676V49.6376Z" fill="white"/>
<path d="M253.615 61.7376L254.164 60.2938L256.225 52.1813H259.66V61.7376H253.615ZM262.339 49.6376H262.27H259.66H256.843H254.164V49.7063L251.554 60.0876L250.936 61.6688H249.287V62.3563V64.1438V66.0688H251.966V64.1438H259.66H261.583V66.0688H264.262V64.1438V62.3563V61.6688H262.339V49.6376Z" fill="white"/>
<path d="M229.503 59.5376L232.663 54.2438V64.2126H235.342V49.6376H232.663L228.473 56.8563L224.283 49.6376H221.604V64.2126H224.283V54.2438L227.374 59.5376H229.503Z" fill="white"/>
<path d="M284.595 58.9875L286.999 52.8L289.404 58.9875H284.595ZM288.373 49.3625H285.694L279.855 64.2125H282.534L283.633 61.4625H290.434L291.533 64.2125H294.212L288.373 49.3625Z" fill="white"/>
<path d="M268.521 60.1563V49.6376H265.842V64.2126H268.521L275.39 53.7626V64.2126H278.069V49.6376H275.39L268.521 60.1563Z" fill="white"/>
<path d="M314.339 60.1563V49.6376H311.66V64.2126H314.339L321.209 53.7626V64.2126H323.888V49.6376H321.209L314.339 60.1563Z" fill="white"/>
<path d="M336.321 49.6376L329.383 60.1563V49.6376H326.704V64.2126H329.383H329.452L336.321 53.7626V64.2126H339V49.6376H336.321Z" fill="white"/>
<path d="M221.535 83.6001V76.7251H227.511V83.6001H225.931V78.0313H223.184V83.6001H221.535Z" fill="white"/>
<path d="M229.229 86.2125V76.725H230.877V77.8938H230.946C231.015 77.7563 231.152 77.55 231.289 77.3438C231.427 77.1375 231.633 77 231.908 76.8625C232.182 76.725 232.526 76.6562 232.938 76.6562C233.488 76.6562 233.968 76.7937 234.449 77.0687C234.861 77.3437 235.274 77.7563 235.48 78.2375C235.754 78.7875 235.892 79.4062 235.892 80.1625C235.892 80.9187 235.754 81.5375 235.48 82.0875C235.205 82.6375 234.861 83.05 234.449 83.325C234.037 83.6 233.488 83.7375 232.938 83.7375C232.526 83.7375 232.182 83.6688 231.908 83.5313C231.633 83.3938 231.427 83.2563 231.289 83.05C231.152 82.8438 231.015 82.7063 230.946 82.5H230.877V86.1438H229.229V86.2125ZM230.877 80.1625C230.877 80.575 230.946 80.9875 231.083 81.3313C231.221 81.675 231.427 81.95 231.633 82.0875C231.908 82.2938 232.182 82.3625 232.526 82.3625C232.869 82.3625 233.213 82.2938 233.419 82.0875C233.694 81.8813 233.831 81.6062 233.968 81.2625C234.106 80.9187 234.174 80.575 234.174 80.0938C234.174 79.6813 234.106 79.2688 233.968 78.925C233.831 78.5813 233.625 78.3062 233.419 78.1687C233.144 77.9625 232.869 77.8938 232.457 77.8938C232.114 77.8938 231.77 77.9625 231.564 78.1687C231.289 78.375 231.152 78.5813 231.015 78.925C230.946 79.3375 230.877 79.6812 230.877 80.1625Z" fill="white"/>
<path d="M238.983 81.4001L241.799 76.7251H243.517V83.6001H241.937V78.9251L239.12 83.6001H237.403V76.7251H238.983V81.4001Z" fill="white"/>
<path d="M248.531 83.6001V74.3876H252.035C252.79 74.3876 253.34 74.5251 253.889 74.8001C254.37 75.0751 254.782 75.4188 254.988 75.9001C255.263 76.3813 255.401 76.8626 255.401 77.4813C255.401 78.1001 255.263 78.5813 254.988 79.0626C254.714 79.5438 254.37 79.8876 253.889 80.1626C253.409 80.4376 252.79 80.5751 252.035 80.5751H249.699V79.2001H251.829C252.241 79.2001 252.584 79.1313 252.859 78.9938C253.134 78.8563 253.34 78.6501 253.477 78.3751C253.615 78.1001 253.683 77.8251 253.683 77.4813C253.683 77.1376 253.615 76.8626 253.477 76.5876C253.34 76.3126 253.134 76.1751 252.859 76.0376C252.584 75.9001 252.241 75.8313 251.829 75.8313H250.249V83.6688H248.531V83.6001Z" fill="white"/>
<path d="M264.949 77.4813H263.232C263.163 77.2063 263.094 76.9313 262.957 76.725C262.819 76.5188 262.682 76.3125 262.476 76.175C262.27 76.0375 262.064 75.9 261.789 75.8313C261.514 75.7625 261.239 75.6938 260.965 75.6938C260.484 75.6938 260.003 75.8313 259.591 76.0375C259.179 76.3125 258.904 76.6563 258.629 77.1375C258.423 77.6188 258.286 78.2375 258.286 78.925C258.286 79.6125 258.423 80.2313 258.629 80.7125C258.835 81.1938 259.179 81.5375 259.591 81.8125C260.003 82.0875 260.415 82.1563 260.965 82.1563C261.239 82.1563 261.514 82.0875 261.789 82.0188C262.064 81.95 262.27 81.8125 262.476 81.675C262.682 81.5375 262.819 81.3313 262.957 81.125C263.094 80.9188 263.163 80.6438 263.232 80.4375H264.949C264.88 80.85 264.743 81.2625 264.537 81.675C264.331 82.0875 264.056 82.3625 263.712 82.7063C263.369 82.9813 262.957 83.2563 262.476 83.3938C261.995 83.5313 261.514 83.6688 260.965 83.6688C260.14 83.6688 259.385 83.4625 258.767 83.1188C258.148 82.775 257.599 82.225 257.255 81.4688C256.912 80.7813 256.706 79.8875 256.706 78.925C256.706 77.9625 256.912 77.0688 257.255 76.3813C257.599 75.6938 258.148 75.1438 258.767 74.7313C259.385 74.3875 260.14 74.1813 260.965 74.1813C261.514 74.1813 261.995 74.25 262.407 74.3875C262.888 74.525 263.232 74.7313 263.644 75.0063C263.987 75.2813 264.262 75.625 264.537 76.0375C264.812 76.45 264.88 77 264.949 77.4813Z" fill="white"/>
<path d="M274.154 74.3876V83.6001H272.436V75.7626H268.315V83.6001H266.598V74.3876H274.154Z" fill="white"/>
<path d="M283.908 74.3876V83.6001H282.191V75.7626H278.069V83.6001H276.352V74.3876H283.908Z" fill="white"/>
<path d="M187.257 37.1936C186.57 37.4686 185.952 37.6749 185.196 37.8124C188.768 42.0749 190.967 47.6436 190.967 53.6248C190.967 59.6061 188.837 65.1748 185.196 69.4373C185.883 69.5748 186.57 69.7811 187.257 70.0561C190.829 65.5186 192.959 59.8123 192.959 53.6248C192.89 47.3686 190.76 41.7311 187.257 37.1936Z" fill="url(#paint0_linear)"/>
<path d="M143.294 62.9749C142.744 63.3874 142.195 63.7999 141.645 64.1436C145.767 73.6311 155.177 80.3686 166.168 80.3686C167.474 80.3686 168.779 80.2311 170.015 80.0936C170.153 79.4061 170.29 78.6498 170.496 78.0311C169.053 78.3061 167.611 78.4436 166.168 78.4436C155.864 78.3748 147.003 71.9811 143.294 62.9749Z" fill="url(#paint1_linear)"/>
<path d="M170.015 27.1561C168.779 26.9499 167.474 26.8811 166.168 26.8811C155.452 26.8811 146.247 33.2749 141.988 42.3499C142.538 42.6936 143.088 43.1061 143.568 43.5874C147.484 34.9249 156.139 28.8749 166.237 28.8749C167.748 28.8749 169.191 29.0124 170.565 29.2874C170.29 28.5999 170.153 27.9124 170.015 27.1561Z" fill="url(#paint2_linear)"/>
<path d="M137.936 40.6312C138.622 40.7687 139.241 40.975 139.859 41.25C144.53 31.35 154.559 24.4749 166.237 24.4749C167.474 24.4749 168.71 24.6125 169.946 24.75C169.946 24.0625 170.015 23.4437 170.153 22.7562C168.847 22.6187 167.542 22.4812 166.237 22.4812C153.666 22.4812 142.881 29.9062 137.936 40.6312Z" fill="url(#paint3_linear)"/>
<path d="M166.237 84.7687C167.542 84.7687 168.847 84.6312 170.153 84.4937C170.015 83.8749 169.947 83.1874 169.947 82.4999C168.71 82.6374 167.542 82.7749 166.237 82.7749C154.285 82.7749 143.981 75.5562 139.516 65.1749C138.897 65.3812 138.279 65.5874 137.592 65.7249C142.263 76.8624 153.323 84.7687 166.237 84.7687Z" fill="url(#paint4_linear)"/>
<path d="M191.035 34.9249C190.554 35.3374 190.005 35.7499 189.455 36.0937C193.165 40.9749 195.363 47.0249 195.363 53.6249C195.363 60.2249 193.165 66.2749 189.455 71.1562C190.005 71.4999 190.554 71.9124 191.035 72.3249C194.951 67.0999 197.355 60.6374 197.355 53.6249C197.355 46.5437 194.951 40.1499 191.035 34.9249Z" fill="url(#paint5_linear)"/>
<path d="M193.989 31.2124C193.646 31.8312 193.233 32.4499 192.821 32.9999C197.218 38.7062 199.897 45.8561 199.897 53.6249C199.897 61.3936 197.218 68.5436 192.821 74.2499C193.233 74.7999 193.646 75.4186 193.989 76.0374C198.935 69.9186 201.889 62.1499 201.889 53.6936C201.889 45.0999 198.935 37.3312 193.989 31.2124Z" fill="url(#paint6_linear)"/>
<path d="M166.237 87.3124C152.018 87.3124 139.859 78.4436 134.913 65.9311C134.157 65.9311 133.402 65.8624 132.715 65.7249C137.729 79.4749 150.85 89.3061 166.237 89.3061C168.16 89.3061 170.015 89.0998 171.87 88.8249C171.526 88.2061 171.183 87.5874 170.908 86.9686C169.328 87.1749 167.817 87.3124 166.237 87.3124Z" fill="url(#paint7_linear)"/>
<path d="M133.058 40.4937C133.745 40.3562 134.432 40.2874 135.119 40.2874C135.188 40.2874 135.188 40.2874 135.257 40.2874C140.409 28.2562 152.361 19.7999 166.237 19.7999C167.817 19.7999 169.397 19.9374 170.908 20.1437C171.183 19.5249 171.526 18.9062 171.87 18.2874C170.015 18.0124 168.16 17.8062 166.237 17.8062C151.125 17.8749 138.279 27.2249 133.058 40.4937Z" fill="url(#paint8_linear)"/>
<path d="M135.05 61.0499C139.447 61.0499 142.95 57.4749 142.95 53.1437C142.95 48.7437 139.378 45.2374 135.05 45.2374C130.654 45.2374 127.151 48.8124 127.151 53.1437C127.082 57.4749 130.654 61.0499 135.05 61.0499Z" fill="#009A9D"/>
<path d="M182.586 89.7875C186.982 89.7875 190.486 86.2125 190.486 81.8812C190.486 77.4812 186.914 73.975 182.586 73.975C178.258 73.975 174.686 77.55 174.686 81.8812C174.686 86.2125 178.258 89.7875 182.586 89.7875Z" fill="#009A9D"/>
<path d="M182.586 33.1374C186.982 33.1374 190.486 29.5624 190.486 25.2312C190.486 20.8999 186.914 17.325 182.586 17.325C178.258 17.325 174.686 20.8999 174.686 25.2312C174.686 29.5624 178.258 33.1374 182.586 33.1374Z" fill="#009A9D"/>
<defs>
<linearGradient id="paint0_linear" x1="137.283" y1="53.4903" x2="216.351" y2="53.657" gradientUnits="userSpaceOnUse">
<stop stop-color="#009A9D"/>
<stop offset="0.1222" stop-color="#049C9F"/>
<stop offset="0.2536" stop-color="#11A1A4"/>
<stop offset="0.3892" stop-color="#27A9AD"/>
<stop offset="0.5279" stop-color="#45B5B9"/>
<stop offset="0.6689" stop-color="#6CC4C9"/>
<stop offset="0.8117" stop-color="#9BD7DC"/>
<stop offset="0.9536" stop-color="#D2ECF2"/>
<stop offset="1" stop-color="#E6F4FA"/>
</linearGradient>
<linearGradient id="paint1_linear" x1="137.244" y1="71.5981" x2="216.313" y2="71.7648" gradientUnits="userSpaceOnUse">
<stop stop-color="#009A9D"/>
<stop offset="0.1222" stop-color="#049C9F"/>
<stop offset="0.2536" stop-color="#11A1A4"/>
<stop offset="0.3892" stop-color="#27A9AD"/>
<stop offset="0.5279" stop-color="#45B5B9"/>
<stop offset="0.6689" stop-color="#6CC4C9"/>
<stop offset="0.8117" stop-color="#9BD7DC"/>
<stop offset="0.9536" stop-color="#D2ECF2"/>
<stop offset="1" stop-color="#E6F4FA"/>
</linearGradient>
<linearGradient id="paint2_linear" x1="137.321" y1="35.1904" x2="216.39" y2="35.3571" gradientUnits="userSpaceOnUse">
<stop stop-color="#009A9D"/>
<stop offset="0.1222" stop-color="#049C9F"/>
<stop offset="0.2536" stop-color="#11A1A4"/>
<stop offset="0.3892" stop-color="#27A9AD"/>
<stop offset="0.5279" stop-color="#45B5B9"/>
<stop offset="0.6689" stop-color="#6CC4C9"/>
<stop offset="0.8117" stop-color="#9BD7DC"/>
<stop offset="0.9536" stop-color="#D2ECF2"/>
<stop offset="1" stop-color="#E6F4FA"/>
</linearGradient>
<linearGradient id="paint3_linear" x1="137.328" y1="31.8111" x2="216.397" y2="31.9777" gradientUnits="userSpaceOnUse">
<stop stop-color="#009A9D"/>
<stop offset="0.1222" stop-color="#049C9F"/>
<stop offset="0.2536" stop-color="#11A1A4"/>
<stop offset="0.3892" stop-color="#27A9AD"/>
<stop offset="0.5279" stop-color="#45B5B9"/>
<stop offset="0.6689" stop-color="#6CC4C9"/>
<stop offset="0.8117" stop-color="#9BD7DC"/>
<stop offset="0.9536" stop-color="#D2ECF2"/>
<stop offset="1" stop-color="#E6F4FA"/>
</linearGradient>
<linearGradient id="paint4_linear" x1="137.237" y1="74.9244" x2="216.306" y2="75.0911" gradientUnits="userSpaceOnUse">
<stop stop-color="#009A9D"/>
<stop offset="0.1222" stop-color="#049C9F"/>
<stop offset="0.2536" stop-color="#11A1A4"/>
<stop offset="0.3892" stop-color="#27A9AD"/>
<stop offset="0.5279" stop-color="#45B5B9"/>
<stop offset="0.6689" stop-color="#6CC4C9"/>
<stop offset="0.8117" stop-color="#9BD7DC"/>
<stop offset="0.9536" stop-color="#D2ECF2"/>
<stop offset="1" stop-color="#E6F4FA"/>
</linearGradient>
<linearGradient id="paint5_linear" x1="137.283" y1="53.4823" x2="216.351" y2="53.649" gradientUnits="userSpaceOnUse">
<stop stop-color="#009A9D"/>
<stop offset="0.1222" stop-color="#049C9F"/>
<stop offset="0.2536" stop-color="#11A1A4"/>
<stop offset="0.3892" stop-color="#27A9AD"/>
<stop offset="0.5279" stop-color="#45B5B9"/>
<stop offset="0.6689" stop-color="#6CC4C9"/>
<stop offset="0.8117" stop-color="#9BD7DC"/>
<stop offset="0.9536" stop-color="#D2ECF2"/>
<stop offset="1" stop-color="#E6F4FA"/>
</linearGradient>
<linearGradient id="paint6_linear" x1="137.283" y1="53.4761" x2="216.351" y2="53.6427" gradientUnits="userSpaceOnUse">
<stop stop-color="#009A9D"/>
<stop offset="0.1222" stop-color="#049C9F"/>
<stop offset="0.2536" stop-color="#11A1A4"/>
<stop offset="0.3892" stop-color="#27A9AD"/>
<stop offset="0.5279" stop-color="#45B5B9"/>
<stop offset="0.6689" stop-color="#6CC4C9"/>
<stop offset="0.8117" stop-color="#9BD7DC"/>
<stop offset="0.9536" stop-color="#D2ECF2"/>
<stop offset="1" stop-color="#E6F4FA"/>
</linearGradient>
<linearGradient id="paint7_linear" x1="137.232" y1="77.5059" x2="216.3" y2="77.6725" gradientUnits="userSpaceOnUse">
<stop stop-color="#009A9D"/>
<stop offset="0.1222" stop-color="#049C9F"/>
<stop offset="0.2536" stop-color="#11A1A4"/>
<stop offset="0.3892" stop-color="#27A9AD"/>
<stop offset="0.5279" stop-color="#45B5B9"/>
<stop offset="0.6689" stop-color="#6CC4C9"/>
<stop offset="0.8117" stop-color="#9BD7DC"/>
<stop offset="0.9536" stop-color="#D2ECF2"/>
<stop offset="1" stop-color="#E6F4FA"/>
</linearGradient>
<linearGradient id="paint8_linear" x1="137.334" y1="29.1492" x2="216.402" y2="29.3159" gradientUnits="userSpaceOnUse">
<stop stop-color="#009A9D"/>
<stop offset="0.1222" stop-color="#049C9F"/>
<stop offset="0.2536" stop-color="#11A1A4"/>
<stop offset="0.3892" stop-color="#27A9AD"/>
<stop offset="0.5279" stop-color="#45B5B9"/>
<stop offset="0.6689" stop-color="#6CC4C9"/>
<stop offset="0.8117" stop-color="#9BD7DC"/>
<stop offset="0.9536" stop-color="#D2ECF2"/>
<stop offset="1" stop-color="#E6F4FA"/>
</linearGradient>
</defs>
</svg>
