<svg width="32" height="33" viewBox="0 0 32 33" fill="none" xmlns="http://www.w3.org/2000/svg">
<g clip-path="url(#clip0)">
<path d="M18.3121 32.8261H13.2682C12.4257 32.8261 11.7404 32.1228 11.7404 31.2582V19.5834H8.79764C7.95515 19.5834 7.26981 18.8798 7.26981 18.0155V13.0128C7.26981 12.1483 7.95515 11.445 8.79764 11.445H11.7404V8.93982C11.7404 6.45586 12.5004 4.34253 13.9382 2.82868C15.3824 1.30793 17.4007 0.504272 19.7748 0.504272L23.6216 0.510684C24.4626 0.512164 25.1468 1.21545 25.1468 2.07854V6.72341C25.1468 7.58798 24.4617 8.29127 23.6194 8.29127L21.0295 8.29226C20.2396 8.29226 20.0385 8.45476 19.9954 8.50457C19.9245 8.58718 19.8402 8.82071 19.8402 9.46556V11.4447H23.4248C23.6946 11.4447 23.9561 11.513 24.1808 11.6418C24.6655 11.9197 24.9668 12.4452 24.9668 13.0131L24.9649 18.0158C24.9649 18.8798 24.2795 19.5831 23.437 19.5831H19.8402V31.2582C19.8402 32.1228 19.1546 32.8261 18.3121 32.8261ZM13.5868 30.9312H17.9935V18.7351C17.9935 18.1578 18.4513 17.6883 19.0136 17.6883H23.1184L23.1201 13.3398H19.0133C18.451 13.3398 17.9935 12.8703 17.9935 12.293V9.46556C17.9935 8.72528 18.0668 7.8834 18.6113 7.25064C19.2692 6.4857 20.3061 6.39741 21.029 6.39741L23.3003 6.39643V2.40503L19.7734 2.39911C15.9579 2.39911 13.5868 4.90551 13.5868 8.93982V12.293C13.5868 12.8701 13.1293 13.3398 12.567 13.3398H9.11628V17.6883H12.567C13.1293 17.6883 13.5868 18.1578 13.5868 18.7351V30.9312ZM23.618 2.40552H23.6182H23.618Z" fill="#009A9D"/>
</g>
<defs>
<clipPath id="clip0">
<rect width="31.4352" height="32.3218" fill="white" transform="translate(0.472168 0.567383)"/>
</clipPath>
</defs>
</svg>
