<svg width="33" height="33" viewBox="0 0 33 33" fill="none" xmlns="http://www.w3.org/2000/svg">
<g clip-path="url(#clip0)">
<path d="M23.9421 0.567383H9.11342C4.2873 0.567383 0.361084 4.49219 0.361084 9.31658V24.1402C0.361084 28.9643 4.2873 32.8891 9.11342 32.8891H23.9423C28.7682 32.8891 32.6944 28.9643 32.6944 24.1402V9.31658C32.6944 4.49219 28.7682 0.567383 23.9421 0.567383V0.567383ZM30.7989 24.1402C30.7989 27.9195 27.723 30.9943 23.9421 30.9943H9.11342C5.3325 30.9943 2.2566 27.9195 2.2566 24.1402V9.31658C2.2566 5.53701 5.3325 2.46222 9.11342 2.46222H23.9423C27.723 2.46222 30.7989 5.53701 30.7989 9.31658V24.1402Z" fill="#009A9D"/>
<path d="M16.5277 7.8905C11.6528 7.8905 7.68685 11.855 7.68685 16.7282C7.68685 21.6014 11.6528 25.5659 16.5277 25.5659C21.4027 25.5659 25.3686 21.6014 25.3686 16.7282C25.3686 11.855 21.4027 7.8905 16.5277 7.8905ZM16.5277 23.6711C12.6982 23.6711 9.58236 20.5566 9.58236 16.7282C9.58236 12.9001 12.6982 9.78534 16.5277 9.78534C20.3575 9.78534 23.4731 12.9001 23.4731 16.7282C23.4731 20.5566 20.3575 23.6711 16.5277 23.6711Z" fill="#009A9D"/>
<path d="M25.58 4.75183C24.1394 4.75183 22.9677 5.9234 22.9677 7.36327C22.9677 8.80339 24.1394 9.97496 25.58 9.97496C27.0207 9.97496 28.1927 8.80339 28.1927 7.36327C28.1927 5.92316 27.0207 4.75183 25.58 4.75183ZM25.58 8.07988C25.1849 8.07988 24.8632 7.75832 24.8632 7.36327C24.8632 6.96798 25.1849 6.64667 25.58 6.64667C25.9755 6.64667 26.2972 6.96798 26.2972 7.36327C26.2972 7.75832 25.9755 8.07988 25.58 8.07988Z" fill="#009A9D"/>
</g>
<defs>
<clipPath id="clip0">
<rect width="32.3334" height="32.3218" fill="white" transform="translate(0.361084 0.567383)"/>
</clipPath>
</defs>
</svg>
