<svg width="339" height="110" viewBox="0 0 339 110" fill="none" xmlns="http://www.w3.org/2000/svg"><path fill-rule="evenodd" clip-rule="evenodd" d="M66.358 33.619H51.382L32.354 89.994H47.33l19.028-56.375z" fill="#E73E44"/><path fill-rule="evenodd" clip-rule="evenodd" d="M41.765 17.325H26.79L7.762 73.631h14.975l19.028-56.306z" fill="#fff"/><path fill-rule="evenodd" clip-rule="evenodd" d="M41.285 18.15H27.477L8.861 73.356H22.67L41.285 18.15zm13.051 7.494H39.98l2.61-7.838.276-.756H26.721l-.138.412L7.556 73.838l-.275.756h15.526l-2.542 7.425h14.974l19.097-56.375z" fill="#037BBF"/><path fill-rule="evenodd" clip-rule="evenodd" d="M5.976 44.756h68.968L68.968 62.7H0l5.976-17.944z" fill="#fff"/><path fill-rule="evenodd" clip-rule="evenodd" d="M40.46 45.856h16.006l-5.29 15.813H35.171l5.29-15.813zm-16.967 0h16.074l-5.29 15.813H18.205l5.289-15.813zm-16.761 0h16.074l-5.29 15.813H1.444l5.289-15.813z" fill="#037BBF"/><path fill-rule="evenodd" clip-rule="evenodd" d="M37.438 47.231l-.825 2.27c-6.045-.207-9.273.274-10.372 4.124-1.237 4.056 2.541 4.4 7.693 4.331l-.893 2.407c-8.38.206-12.983-.413-10.853-6.807 2.335-7.012 6.938-6.325 15.25-6.325z" fill="#fff"/><path fill-rule="evenodd" clip-rule="evenodd" d="M57.427 45.856h16.074L68.212 61.67H52.207l5.22-15.813z" fill="#037BBF"/><path fill-rule="evenodd" clip-rule="evenodd" d="M41.49 47.231l-4.67 13.132h4.465l3.64-10.794h4.465l-3.71 10.794h4.466L54.61 47.23H41.49zm16.968 0l-4.603 13.132h4.397l3.64-10.863h4.465l-3.709 10.863h4.465l4.465-13.132h-13.12zm-50.49 0L3.435 60.363h4.327l1.443-4.125c6.526 0 9.342-.138 9.96-4.47.481-3.368-1.305-4.605-6.869-4.537H7.968zm2.061 6.394l1.443-4.262c2.198-.07 3.366.343 3.503 1.787 0 2.2-1.786 2.613-4.946 2.475z" fill="#fff"/><path d="M104.482 0h-1.03v110h1.03V0zm174.549 32.794v-4.606h2.061c.687 0 1.168.206 1.58.55.412.412.549.962.549 1.65 0 .756-.206 1.374-.687 1.787-.481.413-1.236.619-2.267.619-.137 0-.48 0-1.03-.069l-.206.069zm5.358 1.306c1.03-.894 1.58-2.063 1.58-3.575 0-.894-.206-1.719-.55-2.475-.343-.756-.893-1.306-1.579-1.719-.687-.412-1.512-.619-2.405-.619h-5.014v14.576h2.679v-4.882h.961c1.855-.069 3.366-.481 4.328-1.306zm-44.376-.275h5.496V31.35h-5.496v-3.163h7.282v-2.475h-9.961V40.22h10.442v-2.475h-7.763v-3.919zm.481 23.994h5.564v-2.475h-5.564V52.18h7.282v-2.543h-9.961v14.575h10.442v-2.475h-7.763v-3.92zm11.815-23.994h6.045v6.394h2.679V25.712h-2.679v5.638h-6.045v-5.638h-2.679V40.22h2.679v-6.394zm15.182 6.394h2.679V28.187h4.602v-2.475h-11.815v2.476h4.534v12.03zm-34.347-14.507h-2.679v12.032h-6.251V25.712h-2.679V40.22h10.853v1.925h2.679v-4.4h-1.923V25.712zm74.532 23.926h-2.748v12.1h-6.251v-12.1h-2.679v14.575h10.854v1.925h2.679v-4.4h-1.855v-12.1zm-54.061 12.1l.549-1.444 2.061-8.113h3.435v9.557h-6.045zm8.724-12.1h-8.175v.068l-2.61 10.382-.618 1.58h-1.649v4.401h2.679v-1.925h9.617v1.925h2.679v-4.4h-1.923V49.638zm-32.836 9.9l3.16-5.294v9.969h2.679V49.638h-2.679l-4.19 7.218-4.19-7.218h-2.679v14.575h2.679v-9.97l3.091 5.295h2.129zm55.092-.551l2.404-6.187 2.405 6.188h-4.809zm3.778-9.625h-2.679l-5.839 14.85h2.679l1.099-2.75h6.801l1.099 2.75h2.679l-5.839-14.85zm-19.852 10.794V49.638h-2.679v14.575h2.679l6.869-10.45v10.45h2.679V49.638h-2.679l-6.869 10.518zm45.818 0V49.638h-2.679v14.575h2.679l6.87-10.45v10.45h2.679V49.638h-2.679l-6.87 10.518zm21.982-10.518l-6.938 10.518V49.638h-2.679v14.575h2.748l6.869-10.45v10.45H339V49.638h-2.679zM221.535 83.6v-6.875h5.976V83.6h-1.58v-5.569h-2.747v5.57h-1.649zm7.694 2.613v-9.488h1.648v1.169h.069c.069-.138.206-.344.343-.55.138-.206.344-.344.619-.481.274-.138.618-.207 1.03-.207.55 0 1.03.138 1.511.413.412.275.825.687 1.031 1.168.274.55.412 1.17.412 1.925 0 .757-.138 1.375-.412 1.925-.275.55-.619.963-1.031 1.238-.412.275-.961.412-1.511.412-.412 0-.756-.068-1.03-.206-.275-.137-.481-.275-.619-.481-.137-.206-.274-.344-.343-.55h-.069v3.644h-1.648v.069zm1.648-6.05c0 .412.069.825.206 1.168.138.344.344.619.55.757.275.206.549.275.893.275.343 0 .687-.07.893-.275.275-.207.412-.482.549-.825.138-.344.206-.688.206-1.17a3.2 3.2 0 00-.206-1.168c-.137-.344-.343-.619-.549-.756-.275-.206-.55-.275-.962-.275-.343 0-.687.069-.893.275-.275.206-.412.412-.549.756-.069.413-.138.756-.138 1.237zm8.106 1.237l2.816-4.675h1.718V83.6h-1.58v-4.675L239.12 83.6h-1.717v-6.875h1.58V81.4zm9.548 2.2v-9.212h3.504c.755 0 1.305.137 1.854.412.481.275.893.619 1.099 1.1.275.481.413.963.413 1.581 0 .62-.138 1.1-.413 1.582a2.813 2.813 0 01-1.099 1.1c-.48.275-1.099.412-1.854.412h-2.336V79.2h2.13c.412 0 .755-.069 1.03-.206.275-.138.481-.344.618-.619.138-.275.206-.55.206-.894 0-.343-.068-.618-.206-.893-.137-.275-.343-.413-.618-.55-.275-.138-.618-.207-1.03-.207h-1.58v7.838h-1.718V83.6zm16.418-6.119h-1.717c-.069-.275-.138-.55-.275-.756-.138-.206-.275-.412-.481-.55-.206-.138-.412-.275-.687-.344-.275-.069-.55-.137-.824-.137-.481 0-.962.137-1.374.343-.412.275-.687.62-.962 1.1a4.604 4.604 0 00-.343 1.788c0 .688.137 1.306.343 1.788.206.48.55.825.962 1.1.412.275.824.343 1.374.343.274 0 .549-.069.824-.137.275-.069.481-.207.687-.344.206-.138.343-.344.481-.55.137-.206.206-.481.275-.688h1.717a4.384 4.384 0 01-.412 1.238c-.206.413-.481.688-.825 1.031-.343.275-.755.55-1.236.688-.481.137-.962.275-1.511.275-.825 0-1.58-.206-2.198-.55a3.553 3.553 0 01-1.512-1.65c-.343-.688-.549-1.581-.549-2.544 0-.962.206-1.856.549-2.544.344-.687.893-1.237 1.512-1.65a4.525 4.525 0 012.198-.55c.549 0 1.03.069 1.442.207.481.137.825.343 1.237.618.343.275.618.619.893 1.031.275.413.343.963.412 1.444zm9.205-3.093V83.6h-1.718v-7.837h-4.121V83.6h-1.717v-9.212h7.556zm9.754 0V83.6h-1.717v-7.837h-4.122V83.6h-1.717v-9.212h7.556z" fill="#fff"/><path d="M187.257 37.194c-.687.275-1.305.48-2.061.618 3.572 4.263 5.771 9.832 5.771 15.813s-2.13 11.55-5.771 15.812c.687.138 1.374.344 2.061.62a26.48 26.48 0 005.702-16.432 27.184 27.184 0 00-5.702-16.431z" fill="url(#paint0_linear)"/><path d="M143.294 62.975c-.55.412-1.099.825-1.649 1.169 4.122 9.487 13.532 16.225 24.523 16.225 1.306 0 2.611-.138 3.847-.275.138-.688.275-1.444.481-2.063a23.066 23.066 0 01-4.328.413c-10.304-.07-19.165-6.463-22.874-15.47z" fill="url(#paint1_linear)"/><path d="M170.015 27.156c-1.236-.206-2.541-.275-3.847-.275-10.716 0-19.921 6.394-24.18 15.469.55.344 1.1.756 1.58 1.237 3.916-8.662 12.571-14.712 22.669-14.712 1.511 0 2.954.137 4.328.412-.275-.687-.412-1.375-.55-2.13z" fill="url(#paint2_linear)"/><path d="M137.936 40.631a8.994 8.994 0 011.923.619c4.671-9.9 14.7-16.775 26.378-16.775 1.237 0 2.473.137 3.709.275 0-.688.069-1.306.207-1.994-1.306-.137-2.611-.275-3.916-.275-12.571 0-23.356 7.425-28.301 18.15z" fill="url(#paint3_linear)"/><path d="M166.237 84.769c1.305 0 2.61-.138 3.916-.275a9.302 9.302 0 01-.206-1.994c-1.237.137-2.405.275-3.71.275-11.952 0-22.256-7.219-26.721-17.6-.619.206-1.237.412-1.924.55 4.671 11.137 15.731 19.044 28.645 19.044z" fill="url(#paint4_linear)"/><path d="M191.035 34.925c-.481.412-1.03.825-1.58 1.169a28.82 28.82 0 015.908 17.53c0 6.6-2.198 12.65-5.908 17.532.55.344 1.099.756 1.58 1.169 3.916-5.225 6.32-11.688 6.32-18.7 0-7.081-2.404-13.475-6.32-18.7z" fill="url(#paint5_linear)"/><path d="M193.989 31.212A15.949 15.949 0 01192.821 33c4.397 5.706 7.076 12.856 7.076 20.625s-2.679 14.919-7.076 20.625c.412.55.825 1.169 1.168 1.787a35.411 35.411 0 007.9-22.343c0-8.594-2.954-16.363-7.9-22.482z" fill="url(#paint6_linear)"/><path d="M166.237 87.312c-14.219 0-26.378-8.868-31.324-21.38-.756 0-1.511-.07-2.198-.207 5.014 13.75 18.135 23.581 33.522 23.581 1.923 0 3.778-.206 5.633-.481-.344-.619-.687-1.238-.962-1.856-1.58.206-3.091.343-4.671.343z" fill="url(#paint7_linear)"/><path d="M133.058 40.494a10.478 10.478 0 012.061-.207h.138c5.152-12.03 17.104-20.487 30.98-20.487 1.58 0 3.16.137 4.671.344.275-.62.618-1.238.962-1.857-1.855-.275-3.71-.48-5.633-.48-15.112.068-27.958 9.418-33.179 22.687z" fill="url(#paint8_linear)"/><path d="M135.05 61.05c4.397 0 7.9-3.575 7.9-7.906 0-4.4-3.572-7.907-7.9-7.907-4.396 0-7.899 3.575-7.899 7.907-.069 4.33 3.503 7.906 7.899 7.906zm47.536 28.737c4.396 0 7.9-3.575 7.9-7.906 0-4.4-3.572-7.906-7.9-7.906s-7.9 3.575-7.9 7.906c0 4.332 3.572 7.906 7.9 7.906zm0-56.65c4.396 0 7.9-3.575 7.9-7.906 0-4.331-3.572-7.906-7.9-7.906s-7.9 3.575-7.9 7.906c0 4.331 3.572 7.906 7.9 7.906z" fill="#009A9D"/><defs><linearGradient id="paint0_linear" x1="137.283" y1="53.49" x2="216.351" y2="53.657" gradientUnits="userSpaceOnUse"><stop stop-color="#009A9D"/><stop offset=".122" stop-color="#049C9F"/><stop offset=".254" stop-color="#11A1A4"/><stop offset=".389" stop-color="#27A9AD"/><stop offset=".528" stop-color="#45B5B9"/><stop offset=".669" stop-color="#6CC4C9"/><stop offset=".812" stop-color="#9BD7DC"/><stop offset=".954" stop-color="#D2ECF2"/><stop offset="1" stop-color="#E6F4FA"/></linearGradient><linearGradient id="paint1_linear" x1="137.244" y1="71.598" x2="216.313" y2="71.765" gradientUnits="userSpaceOnUse"><stop stop-color="#009A9D"/><stop offset=".122" stop-color="#049C9F"/><stop offset=".254" stop-color="#11A1A4"/><stop offset=".389" stop-color="#27A9AD"/><stop offset=".528" stop-color="#45B5B9"/><stop offset=".669" stop-color="#6CC4C9"/><stop offset=".812" stop-color="#9BD7DC"/><stop offset=".954" stop-color="#D2ECF2"/><stop offset="1" stop-color="#E6F4FA"/></linearGradient><linearGradient id="paint2_linear" x1="137.321" y1="35.19" x2="216.39" y2="35.357" gradientUnits="userSpaceOnUse"><stop stop-color="#009A9D"/><stop offset=".122" stop-color="#049C9F"/><stop offset=".254" stop-color="#11A1A4"/><stop offset=".389" stop-color="#27A9AD"/><stop offset=".528" stop-color="#45B5B9"/><stop offset=".669" stop-color="#6CC4C9"/><stop offset=".812" stop-color="#9BD7DC"/><stop offset=".954" stop-color="#D2ECF2"/><stop offset="1" stop-color="#E6F4FA"/></linearGradient><linearGradient id="paint3_linear" x1="137.328" y1="31.811" x2="216.397" y2="31.978" gradientUnits="userSpaceOnUse"><stop stop-color="#009A9D"/><stop offset=".122" stop-color="#049C9F"/><stop offset=".254" stop-color="#11A1A4"/><stop offset=".389" stop-color="#27A9AD"/><stop offset=".528" stop-color="#45B5B9"/><stop offset=".669" stop-color="#6CC4C9"/><stop offset=".812" stop-color="#9BD7DC"/><stop offset=".954" stop-color="#D2ECF2"/><stop offset="1" stop-color="#E6F4FA"/></linearGradient><linearGradient id="paint4_linear" x1="137.237" y1="74.924" x2="216.306" y2="75.091" gradientUnits="userSpaceOnUse"><stop stop-color="#009A9D"/><stop offset=".122" stop-color="#049C9F"/><stop offset=".254" stop-color="#11A1A4"/><stop offset=".389" stop-color="#27A9AD"/><stop offset=".528" stop-color="#45B5B9"/><stop offset=".669" stop-color="#6CC4C9"/><stop offset=".812" stop-color="#9BD7DC"/><stop offset=".954" stop-color="#D2ECF2"/><stop offset="1" stop-color="#E6F4FA"/></linearGradient><linearGradient id="paint5_linear" x1="137.283" y1="53.482" x2="216.351" y2="53.649" gradientUnits="userSpaceOnUse"><stop stop-color="#009A9D"/><stop offset=".122" stop-color="#049C9F"/><stop offset=".254" stop-color="#11A1A4"/><stop offset=".389" stop-color="#27A9AD"/><stop offset=".528" stop-color="#45B5B9"/><stop offset=".669" stop-color="#6CC4C9"/><stop offset=".812" stop-color="#9BD7DC"/><stop offset=".954" stop-color="#D2ECF2"/><stop offset="1" stop-color="#E6F4FA"/></linearGradient><linearGradient id="paint6_linear" x1="137.283" y1="53.476" x2="216.351" y2="53.643" gradientUnits="userSpaceOnUse"><stop stop-color="#009A9D"/><stop offset=".122" stop-color="#049C9F"/><stop offset=".254" stop-color="#11A1A4"/><stop offset=".389" stop-color="#27A9AD"/><stop offset=".528" stop-color="#45B5B9"/><stop offset=".669" stop-color="#6CC4C9"/><stop offset=".812" stop-color="#9BD7DC"/><stop offset=".954" stop-color="#D2ECF2"/><stop offset="1" stop-color="#E6F4FA"/></linearGradient><linearGradient id="paint7_linear" x1="137.232" y1="77.506" x2="216.3" y2="77.672" gradientUnits="userSpaceOnUse"><stop stop-color="#009A9D"/><stop offset=".122" stop-color="#049C9F"/><stop offset=".254" stop-color="#11A1A4"/><stop offset=".389" stop-color="#27A9AD"/><stop offset=".528" stop-color="#45B5B9"/><stop offset=".669" stop-color="#6CC4C9"/><stop offset=".812" stop-color="#9BD7DC"/><stop offset=".954" stop-color="#D2ECF2"/><stop offset="1" stop-color="#E6F4FA"/></linearGradient><linearGradient id="paint8_linear" x1="137.334" y1="29.149" x2="216.402" y2="29.316" gradientUnits="userSpaceOnUse"><stop stop-color="#009A9D"/><stop offset=".122" stop-color="#049C9F"/><stop offset=".254" stop-color="#11A1A4"/><stop offset=".389" stop-color="#27A9AD"/><stop offset=".528" stop-color="#45B5B9"/><stop offset=".669" stop-color="#6CC4C9"/><stop offset=".812" stop-color="#9BD7DC"/><stop offset=".954" stop-color="#D2ECF2"/><stop offset="1" stop-color="#E6F4FA"/></linearGradient></defs></svg>