<svg width="32" height="33" viewBox="0 0 32 33" fill="none" xmlns="http://www.w3.org/2000/svg"><g clip-path="url(#clip0)"><path d="M18.312 32.826h-5.044c-.842 0-1.528-.703-1.528-1.568V19.583H8.798c-.843 0-1.528-.703-1.528-1.567v-5.003c0-.865.685-1.568 1.528-1.568h2.942V8.94c0-2.484.76-4.597 2.198-6.111C15.382 1.308 17.401.504 19.775.504l3.847.007c.84.001 1.525.704 1.525 1.568v4.644c0 .865-.685 1.568-1.528 1.568l-2.59.001c-.79 0-.99.163-1.034.213-.07.082-.155.316-.155.96v1.98h3.585c.27 0 .531.068.756.197.485.278.786.803.786 1.371l-.002 5.003c0 .864-.686 1.567-1.528 1.567H19.84v11.675c0 .865-.685 1.568-1.528 1.568zm-4.725-1.895h4.407V18.735c0-.577.457-1.047 1.02-1.047h4.104l.002-4.348h-4.107c-.562 0-1.02-.47-1.02-1.047V9.466c0-.74.074-1.583.618-2.215.658-.765 1.695-.854 2.418-.854H23.3V2.404l-3.527-.006c-3.815 0-6.186 2.507-6.186 6.54v3.354c0 .577-.458 1.047-1.02 1.047h-3.45v4.348h3.45c.562 0 1.02.47 1.02 1.047V30.93zM23.618 2.406z" fill="#009A9D"/></g><defs><clipPath id="clip0"><path fill="#fff" transform="translate(.472 .567)" d="M0 0h31.435v32.322H0z"/></clipPath></defs></svg>