<svg width="33" height="33" viewBox="0 0 33 33" fill="none" xmlns="http://www.w3.org/2000/svg"><g clip-path="url(#clip0)" fill="#009A9D"><path d="M23.942.567H9.113C4.287.567.361 4.492.361 9.317V24.14c0 4.824 3.926 8.75 8.752 8.75h14.83c4.825 0 8.751-3.926 8.751-8.75V9.317c0-4.825-3.926-8.75-8.752-8.75zM30.8 24.14c0 3.78-3.076 6.854-6.857 6.854H9.113c-3.78 0-6.856-3.075-6.856-6.854V9.317a6.863 6.863 0 016.856-6.855h14.83c3.78 0 6.856 3.075 6.856 6.855V24.14z"/><path d="M16.528 7.89c-4.875 0-8.841 3.965-8.841 8.838 0 4.873 3.966 8.838 8.84 8.838 4.876 0 8.842-3.965 8.842-8.838 0-4.873-3.966-8.838-8.841-8.838zm0 15.781c-3.83 0-6.946-3.114-6.946-6.943 0-3.828 3.116-6.943 6.946-6.943 3.83 0 6.945 3.115 6.945 6.943 0 3.829-3.115 6.943-6.945 6.943zM25.58 4.752a2.615 2.615 0 00-2.612 2.611 2.615 2.615 0 002.612 2.612 2.615 2.615 0 002.613-2.612 2.615 2.615 0 00-2.613-2.611zm0 3.328a.718.718 0 11.002-1.435.718.718 0 01-.002 1.435z"/></g><defs><clipPath id="clip0"><path fill="#fff" transform="translate(.361 .567)" d="M0 0h32.333v32.322H0z"/></clipPath></defs></svg>