<svg width="0" height="0" class="hidden"><symbol fill="none" xmlns="http://www.w3.org/2000/svg" viewBox="0 0 32 33" id="social-facebook"><g clip-path="url(#clip0)"><path d="M18.312 32.826h-5.044c-.842 0-1.528-.703-1.528-1.568V19.583H8.798c-.843 0-1.528-.703-1.528-1.567v-5.003c0-.865.685-1.568 1.528-1.568h2.942V8.94c0-2.484.76-4.597 2.198-6.111C15.382 1.308 17.401.504 19.775.504l3.847.007c.84.001 1.525.704 1.525 1.568v4.644c0 .865-.685 1.568-1.528 1.568l-2.59.001c-.79 0-.99.163-1.034.213-.07.082-.155.316-.155.96v1.98h3.585c.27 0 .531.068.756.197.485.278.786.803.786 1.371l-.002 5.003c0 .864-.686 1.567-1.528 1.567H19.84v11.675c0 .865-.685 1.568-1.528 1.568zm-4.725-1.895h4.407V18.735c0-.577.457-1.047 1.02-1.047h4.104l.002-4.348h-4.107c-.562 0-1.02-.47-1.02-1.047V9.466c0-.74.074-1.583.618-2.215.658-.765 1.695-.854 2.418-.854H23.3V2.404l-3.527-.006c-3.815 0-6.186 2.507-6.186 6.54v3.354c0 .577-.458 1.047-1.02 1.047h-3.45v4.348h3.45c.562 0 1.02.47 1.02 1.047V30.93zM23.618 2.406z" fill="#009A9D"/></g><defs><clipPath id="clip0"><path fill="#fff" transform="translate(.472 .567)" d="M0 0h31.435v32.322H0z"/></clipPath></defs></symbol><symbol fill="none" xmlns="http://www.w3.org/2000/svg" viewBox="0 0 33 33" id="social-instagram"><g clip-path="url(#clip0)"><path d="M23.942.567H9.113C4.287.567.361 4.492.361 9.317V24.14c0 4.824 3.926 8.75 8.752 8.75h14.83c4.825 0 8.751-3.926 8.751-8.75V9.317c0-4.825-3.926-8.75-8.752-8.75zM30.8 24.14c0 3.78-3.076 6.854-6.857 6.854H9.113c-3.78 0-6.856-3.075-6.856-6.854V9.317a6.863 6.863 0 016.856-6.855h14.83c3.78 0 6.856 3.075 6.856 6.855V24.14z"/><path d="M16.528 7.89c-4.875 0-8.841 3.965-8.841 8.838 0 4.873 3.966 8.838 8.84 8.838 4.876 0 8.842-3.965 8.842-8.838 0-4.873-3.966-8.838-8.841-8.838zm0 15.781c-3.83 0-6.946-3.114-6.946-6.943 0-3.828 3.116-6.943 6.946-6.943 3.83 0 6.945 3.115 6.945 6.943 0 3.829-3.115 6.943-6.945 6.943zM25.58 4.752a2.615 2.615 0 00-2.612 2.611 2.615 2.615 0 002.612 2.612 2.615 2.615 0 002.613-2.612 2.615 2.615 0 00-2.613-2.611zm0 3.328a.718.718 0 11.002-1.435.718.718 0 01-.002 1.435z"/></g><defs><clipPath id="clip0"><path fill="#fff" transform="translate(.361 .567)" d="M0 0h32.333v32.322H0z"/></clipPath></defs></symbol></svg>